<?xml version="1.0" encoding="utf-8"?>
<!-- Generator: Adobe Illustrator 16.0.0, SVG Export Plug-In . SVG Version: 6.00 Build 0)  -->
<!DOCTYPE svg PUBLIC "-//W3C//DTD SVG 1.0//EN" "http://www.w3.org/TR/2001/REC-SVG-20010904/DTD/svg10.dtd">
<svg version="1.0" id="Layer_1" xmlns="http://www.w3.org/2000/svg" xmlns:xlink="http://www.w3.org/1999/xlink" x="0px" y="0px"
	 width="100px" height="100px" viewBox="0 0 100 100" enable-background="new 0 0 100 100" xml:space="preserve">
<path d="M50,26.667c-12.884,0-23.333,10.449-23.333,23.333c0,12.888,10.449,23.333,23.333,23.333S73.333,62.888,73.333,50
	C73.333,37.116,62.884,26.667,50,26.667z M50,66.667c-9.206,0-16.667-7.461-16.667-16.667S40.794,33.333,50,33.333
	c9.202,0,16.667,7.46,16.667,16.667S59.202,66.667,50,66.667z"/>
<rect x="46.667" y="10" width="6.666" height="10"/>
<rect x="46.667" y="80" width="6.666" height="10"/>
<rect x="10" y="46.667" width="10" height="6.666"/>
<rect x="80" y="46.667" width="10" height="6.666"/>
<rect x="8.955" y="17.234" transform="matrix(-0.707 -0.7072 0.7072 -0.707 20.5695 49.6606)" width="23.232" height="6.671"/>
<rect x="67.812" y="76.093" transform="matrix(-0.7071 -0.7071 0.7071 -0.7071 79.4297 191.7554)" width="23.234" height="6.668"/>
<rect x="8.954" y="76.093" transform="matrix(-0.7072 0.707 -0.707 -0.7072 91.2757 121.0545)" width="23.232" height="6.671"/>
<rect x="67.81" y="17.237" transform="matrix(-0.7071 0.7071 -0.7071 -0.7071 150.1363 -21.0472)" width="23.234" height="6.668"/>
</svg>
