<?xml version="1.0" encoding="utf-8"?>
<!-- Generator: Adobe Illustrator 16.0.0, SVG Export Plug-In . SVG Version: 6.00 Build 0)  -->
<!DOCTYPE svg PUBLIC "-//W3C//DTD SVG 1.0//EN" "http://www.w3.org/TR/2001/REC-SVG-20010904/DTD/svg10.dtd">
<svg version="1.0" id="Layer_1" xmlns="http://www.w3.org/2000/svg" xmlns:xlink="http://www.w3.org/1999/xlink" x="0px" y="0px"
	 width="100px" height="100px" viewBox="0 0 100 100" enable-background="new 0 0 100 100" xml:space="preserve">
<rect x="43.333" y="10" width="6.667" height="11.666"/>
<rect x="10" y="43.333" width="11.667" height="6.667"/>
<rect x="65.137" y="19.027" transform="matrix(-0.7072 -0.707 0.707 -0.7072 99.3123 90.8532)" width="6.666" height="11.668"/>
<rect x="21.534" y="19.027" transform="matrix(-0.7071 0.7071 -0.7071 -0.7071 60.0283 24.8542)" width="6.665" height="11.665"/>
<path d="M66.667,43.333c-0.102,0-0.195,0.02-0.297,0.02c-1.582-9.466-9.788-16.687-19.703-16.687c-11.045,0-20,8.952-20,19.997
	c0,4.775,1.68,9.157,4.473,12.601c-4.675,2.949-7.807,8.125-7.807,14.069C23.333,82.539,30.794,90,40,90h26.667
	C79.554,90,90,79.551,90,66.666C90,53.775,79.554,43.333,66.667,43.333z M33.333,46.663c0-7.36,5.971-13.33,13.334-13.33
	c6.578,0,12.012,4.772,13.102,11.038c-6.588,2.035-11.93,6.911-14.593,13.193c-1.641-0.533-3.356-0.898-5.176-0.898
	c-0.632,0-1.23,0.117-1.843,0.183l0,0C35.234,54.407,33.333,50.774,33.333,46.663z M66.667,83.333H40c-5.524,0-10-4.479-10-10
	c0-5.527,4.476-10,10-10s10,4.473,10,10h6.667c0-4.941-2.188-9.329-5.6-12.376C53.405,54.576,59.476,50,66.667,50
	c9.205,0,16.666,7.461,16.666,16.666C83.333,75.872,75.872,83.333,66.667,83.333z"/>
</svg>
