<?xml version="1.0" encoding="utf-8"?>
<!-- Generator: Adobe Illustrator 16.0.0, SVG Export Plug-In . SVG Version: 6.00 Build 0)  -->
<!DOCTYPE svg PUBLIC "-//W3C//DTD SVG 1.0//EN" "http://www.w3.org/TR/2001/REC-SVG-20010904/DTD/svg10.dtd">
<svg version="1.0" id="Layer_1" xmlns="http://www.w3.org/2000/svg" xmlns:xlink="http://www.w3.org/1999/xlink" x="0px" y="0px"
	 width="100px" height="100px" viewBox="0 0 100 100" enable-background="new 0 0 100 100" xml:space="preserve">
<path d="M46.667,70H10v6.667h36.667C48.506,76.667,50,78.157,50,80s-1.494,3.333-3.333,3.333H40V90h6.667c5.521,0,10-4.473,10-10
	C56.667,74.479,52.188,70,46.667,70z"/>
<path d="M53.333,56.667C57.015,56.667,60,53.685,60,50c0-3.682-2.985-6.667-6.667-6.667h-6.667v-6.667h6.667
	c7.36,0,13.334,5.97,13.334,13.333c0,7.37-5.974,13.333-13.334,13.333H10v-6.666H53.333z"/>
<path d="M73.333,23.333C70.071,15.501,62.347,10,53.333,10c-12.421,0-22.825,8.502-25.794,20h-4.206C15.97,30,10,35.97,10,43.333
	l0,0V50h6.667v-6.667c0-3.679,2.988-6.667,6.667-6.667h10c0-11.048,8.955-20,20-20c7.702,0,13.991,5.853,14.831,13.333h5.169
	c5.515,0,10,4.486,10,10s-4.485,10-10,10v6.667C82.539,56.667,90,49.206,90,40S82.539,23.333,73.333,23.333z"/>
</svg>
